<?xml version="1.0" encoding="UTF-8"?>
<svg version="1.1" xmlns="http://www.w3.org/2000/svg" width="1536" height="1024">
<path d="M0 0 C506.88 0 1013.76 0 1536 0 C1536 337.92 1536 675.84 1536 1024 C1029.12 1024 522.24 1024 0 1024 C0 686.08 0 348.16 0 0 Z " fill="#FEFEFE" transform="translate(0,0)"/>
<path d="M0 0 C20.06737809 16.95492495 34.54070105 40.1102361 38.10546875 66.40234375 C38.2758667 67.64363037 38.44626465 68.88491699 38.62182617 70.16381836 C38.74662354 71.0997583 38.8714209 72.03569824 39 73 C39.87736816 72.98428955 40.75473633 72.9685791 41.65869141 72.95239258 C44.93511952 72.90105624 48.21111598 72.86355003 51.48779297 72.83520508 C52.90192437 72.82018175 54.31600968 72.79975695 55.72998047 72.77368164 C57.77062397 72.73701046 59.81064792 72.72020964 61.8515625 72.70703125 C63.07697754 72.6913208 64.30239258 72.67561035 65.56494141 72.65942383 C70.66603183 73.16518226 73.88961406 74.76957234 77.3125 78.5625 C80.22788355 82.77360957 80.5347984 85.96703422 80 91 C78.25457257 99.45582718 76.56855813 107.58372714 70.125 113.8125 C67.46486396 115.29904661 64.99501584 115.55523607 62 116 C61.91000732 116.7321875 61.82001465 117.464375 61.72729492 118.21875 C60.13463206 130.25100902 57.69105088 142.10352139 55.3125 154 C51.49285759 173.15829534 51.49285759 173.15829534 47.9609375 192.37109375 C47.80692978 193.2398111 47.65292206 194.10852844 47.49424744 195.00357056 C46.78580121 199.00684715 46.09124491 203.0116146 45.42114258 207.02148438 C43.13499312 220.27725676 39.45509826 233.49032258 28.3515625 242.0390625 C20.16384449 247.4900638 13.3659282 249.28202545 3.68847656 249.40307617 C2.32366528 249.43093295 2.32366528 249.43093295 0.93128204 249.45935249 C-2.08218203 249.51781059 -5.09565857 249.56210177 -8.109375 249.60546875 C-10.25185809 249.64236952 -12.39433442 249.67966495 -14.5368042 249.71733093 C-36.86991216 250.09118394 -59.20501938 250.25534331 -81.54101562 250.29516602 C-86.07825397 250.30420698 -90.61520383 250.32557151 -95.15234375 250.35668945 C-100.7709261 250.39518436 -106.38924814 250.41392669 -112.00795746 250.41844749 C-114.10812783 250.42326794 -116.20829543 250.43474908 -118.30838776 250.45348549 C-132.70812493 250.57469162 -145.87474308 250.40186577 -157 240 C-164.00231377 233.07910848 -167.30952916 225.35853849 -169.25 215.8125 C-169.44980469 214.86616699 -169.64960938 213.91983398 -169.85546875 212.94482422 C-172.53360761 199.90474423 -174.75084811 186.77053874 -177.04443359 173.65869141 C-178.85831385 163.30460584 -180.73986682 152.9809254 -182.875 142.6875 C-184.71262446 133.82265661 -186.10022002 125.01122936 -187 116 C-187.92425781 115.86851562 -188.84851563 115.73703125 -189.80078125 115.6015625 C-193.78865252 114.85170636 -195.90113385 113.6168203 -199 111 C-200.34958993 108.55074419 -201.18134888 106.62163274 -202 104 C-202.2784375 103.18273437 -202.556875 102.36546875 -202.84375 101.5234375 C-204.98668184 94.63827687 -207.34276719 85.80639141 -204.015625 78.98046875 C-201.77733005 76.14115016 -199.34738324 74.26258442 -196 73 C-192.60839844 72.77294922 -192.60839844 72.77294922 -188.609375 72.8046875 C-187.55245453 72.80893234 -187.55245453 72.80893234 -186.47418213 72.81326294 C-184.2326124 72.82442199 -181.99144814 72.84951807 -179.75 72.875 C-178.22656829 72.88503536 -176.70313029 72.89416024 -175.1796875 72.90234375 C-171.45299414 72.92434709 -167.72653667 72.95884728 -164 73 C-164.01369629 71.91589844 -164.02739258 70.83179688 -164.04150391 69.71484375 C-163.78597544 46.84354322 -148.41918642 23.80622854 -133.375 8 C-96.93572994 -27.43941204 -40.35790024 -31.08044558 0 0 Z " fill="#3CC477" transform="translate(415,382)"/>
<path d="M0 0 C0.88214676 -0.00960754 1.76429352 -0.01921509 2.673172 -0.02911377 C3.63655991 -0.03336365 4.59994781 -0.03761353 5.5925293 -0.04199219 C7.07924385 -0.0505423 7.07924385 -0.0505423 8.59599304 -0.05926514 C10.70526049 -0.06873927 12.8145429 -0.07525864 14.92382812 -0.07910156 C18.11510234 -0.08871166 21.30570597 -0.11967142 24.49682617 -0.15136719 C50.76913747 -0.29072606 50.76913747 -0.29072606 61.6550293 7.93066406 C67.63981835 14.00049452 70.33449762 21.96362856 71.16674805 30.28613281 C70.41858794 39.56331808 66.69697554 46.90141797 59.85424805 53.16113281 C55.63549805 56.16113281 55.63549805 56.16113281 52.85424805 56.16113281 C52.85424805 56.82113281 52.85424805 57.48113281 52.85424805 58.16113281 C53.67924805 58.22300781 54.50424805 58.28488281 55.35424805 58.34863281 C62.72759332 60.06030225 68.81200177 64.76305511 72.85424805 71.16113281 C76.37383306 79.49890834 76.33584978 90.14438578 73.79174805 98.75878906 C69.32548239 108.35883292 63.07706997 113.78270141 53.2487793 117.43457031 C49.03588729 118.71287033 45.11334184 119.28652201 40.71264648 119.29052734 C39.71521423 119.2936795 38.71778198 119.29683167 37.69012451 119.30007935 C36.62537903 119.29805511 35.56063354 119.29603088 34.46362305 119.29394531 C33.36326721 119.29490204 32.26291138 119.29585876 31.12921143 119.29684448 C28.80936628 119.29752382 26.48951921 119.2956867 24.16967773 119.29150391 C20.60355414 119.28613177 17.03755533 119.29146771 13.47143555 119.29785156 C11.2188311 119.29719114 8.96622673 119.29591072 6.71362305 119.29394531 C5.10435944 119.29698166 5.10435944 119.29698166 3.46258545 119.30007935 C2.47776184 119.29692719 1.49293823 119.29377502 0.47827148 119.29052734 C-0.39267151 119.28973175 -1.2636145 119.28893616 -2.16094971 119.28811646 C-4.14575195 119.16113281 -4.14575195 119.16113281 -5.14575195 118.16113281 C-5.24370265 116.6452717 -5.2720701 115.12485728 -5.2727356 113.60583496 C-5.27555542 112.62144943 -5.27837524 111.6370639 -5.28128052 110.62284851 C-5.27925629 109.53397842 -5.27723206 108.44510834 -5.27514648 107.32324219 C-5.2768988 106.1835347 -5.27865112 105.04382721 -5.28045654 103.86958313 C-5.28487781 100.08133445 -5.2819361 96.29313201 -5.27856445 92.50488281 C-5.27923741 89.88553865 -5.28020737 87.26619454 -5.28146362 84.64685059 C-5.28328515 79.14883925 -5.28087945 73.65084133 -5.27612305 68.15283203 C-5.27068045 61.78796295 -5.27244312 55.42312589 -5.27794945 49.05825758 C-5.28302624 42.94628949 -5.28249905 36.83433565 -5.27956772 30.72236633 C-5.27889817 28.1163177 -5.27972782 25.51026826 -5.28204727 22.90422058 C-5.28457217 19.26913248 -5.28073549 15.63410685 -5.27514648 11.99902344 C-5.27717072 10.91015335 -5.27919495 9.82128326 -5.28128052 8.69941711 C-5.27846069 7.71503159 -5.27564087 6.73064606 -5.2727356 5.71643066 C-5.27235857 4.85585304 -5.27198154 3.99527542 -5.27159309 3.10861969 C-5.03708993 -0.52049415 -3.17520276 0.02783915 0 0 Z " fill="#1C242C" transform="translate(887.145751953125,454.8388671875)"/>
<path d="M0 0 C1.4540625 0.61681641 1.4540625 0.61681641 2.9375 1.24609375 C23.00557418 10.47009139 36.9948113 26.7367924 45.03515625 47.203125 C46.86781507 52.51560968 48 57.37585218 48 63 C-1.5 63 -51 63 -102 63 C-97.35372026 43.2533111 -97.35372026 43.2533111 -94.25 37.5625 C-93.90783447 36.90838135 -93.56566895 36.2542627 -93.21313477 35.58032227 C-90.11565401 29.84463995 -86.40583235 24.80798743 -82 20 C-81.15501953 19.05253906 -81.15501953 19.05253906 -80.29296875 18.0859375 C-60.53787968 -2.9183024 -26.8103297 -11.84376781 0 0 Z " fill="#FDFEFE" transform="translate(379,392)"/>
<path d="M0 0 C6.93 0 13.86 0 21 0 C21.33 13.86 21.66 27.72 22 42 C24.64 40.02 27.28 38.04 30 36 C37.57221875 33.14490113 45.76378707 33.29816297 53.25 36.5625 C60.5893675 40.73704784 64.66203797 47.07690644 67 55 C67.8832107 58.71568847 68.12645792 62.15114288 68.12939453 65.96777344 C68.13254669 67.14539246 68.13569885 68.32301147 68.13894653 69.53631592 C68.13591019 71.42873016 68.13591019 71.42873016 68.1328125 73.359375 C68.13376923 74.65949524 68.13472595 75.95961548 68.13571167 77.2991333 C68.13718204 80.04269608 68.13505396 82.78622619 68.13037109 85.52978516 C68.12465162 89.05288135 68.12797092 92.57590174 68.13394356 96.09899521 C68.13841352 99.45662799 68.13529059 102.81424006 68.1328125 106.171875 C68.13483673 107.44158142 68.13686096 108.71128784 68.13894653 110.01947021 C68.13421829 111.76698578 68.13421829 111.76698578 68.12939453 113.54980469 C68.12859894 114.58063171 68.12780334 115.61145874 68.12698364 116.67352295 C68 119 68 119 67 120 C65.52347336 120.09880797 64.04232764 120.13079245 62.5625 120.1328125 C61.22058594 120.13474609 61.22058594 120.13474609 59.8515625 120.13671875 C58.44003906 120.13091797 58.44003906 120.13091797 57 120.125 C55.58847656 120.13080078 55.58847656 120.13080078 54.1484375 120.13671875 C53.25382813 120.13542969 52.35921875 120.13414062 51.4375 120.1328125 C50.61121094 120.13168457 49.78492188 120.13055664 48.93359375 120.12939453 C47 120 47 120 46 119 C45.89278338 117.39073147 45.85377002 115.77685781 45.84228516 114.1640625 C45.83202301 113.1320874 45.82176086 112.1001123 45.81118774 111.03686523 C45.80388641 109.91094971 45.79658508 108.78503418 45.7890625 107.625 C45.76097409 105.25389958 45.73230952 102.88280593 45.703125 100.51171875 C45.66198793 96.763838 45.62511362 93.01608091 45.59863281 89.26806641 C45.57089317 85.6576089 45.52499656 82.0477315 45.4765625 78.4375 C45.47330963 77.32777832 45.47005676 76.21805664 45.46670532 75.07470703 C45.37015028 68.9130281 45.24456332 62.43890893 42 57 C38.56288167 54.84583335 36.04164734 54.45593209 32 55 C27.75033466 57.06140483 24.63805046 59.04292431 22 63 C21.6714292 65.60643602 21.6714292 65.60643602 21.68115234 68.57299805 C21.66128265 69.71395432 21.64141296 70.85491058 21.62094116 72.03044128 C21.60361435 73.87742363 21.60361435 73.87742363 21.5859375 75.76171875 C21.56657135 77.02264847 21.5472052 78.28357819 21.5272522 79.5827179 C21.47756263 82.93147581 21.43630565 86.28012319 21.39910889 89.62902832 C21.35906919 93.04770856 21.30797674 96.46622161 21.2578125 99.88476562 C21.16167426 106.58974553 21.07767028 113.29478176 21 120 C14.07 120 7.14 120 0 120 C0 80.4 0 40.8 0 0 Z " fill="#1B232B" transform="translate(798,454)"/>
<path d="M0 0 C0.89460938 -0.00128906 1.78921875 -0.00257813 2.7109375 -0.00390625 C3.65195313 -0.00003906 4.59296875 0.00382812 5.5625 0.0078125 C6.97402344 0.00201172 6.97402344 0.00201172 8.4140625 -0.00390625 C9.75597656 -0.00197266 9.75597656 -0.00197266 11.125 0 C11.95128906 0.00112793 12.77757812 0.00225586 13.62890625 0.00341797 C15.5625 0.1328125 15.5625 0.1328125 16.5625 1.1328125 C16.68613297 3.09569016 16.7404544 5.06296408 16.76782227 7.02954102 C16.78776749 8.29077286 16.80771271 9.5520047 16.82826233 10.85145569 C16.84524795 12.23820877 16.86212671 13.62496316 16.87890625 15.01171875 C16.89946926 16.4227714 16.92046555 17.83381779 16.94187927 19.24485779 C16.99716755 22.9651484 17.04654686 26.68549523 17.09472656 30.40588379 C17.14489242 34.19967675 17.20060408 37.99338773 17.25585938 41.78710938 C17.36352351 49.23560773 17.46494997 56.68417409 17.5625 64.1328125 C18.03867264 63.37921951 18.51484528 62.62562653 19.00544739 61.84919739 C19.94598213 60.36500557 19.94598213 60.36500557 20.90551758 58.85083008 C21.52606522 57.87036209 22.14661285 56.8898941 22.78596497 55.87971497 C24.81772373 52.73818212 26.96720649 49.78343585 29.25 46.8203125 C31.55674898 43.81703186 33.50842187 41.25018818 35.09765625 37.80078125 C37.5625 35.1328125 37.5625 35.1328125 40.03198242 34.65991211 C43.1466763 34.54066103 46.19915261 34.61063608 49.3125 34.7578125 C50.93091797 34.79841797 50.93091797 34.79841797 52.58203125 34.83984375 C55.24421065 34.91052108 57.90234236 35.00912849 60.5625 35.1328125 C60.07657186 39.60207266 59.25774621 42.06075435 56.3125 45.4453125 C55.25095703 46.70988281 55.25095703 46.70988281 54.16796875 48 C53.56154541 48.72074707 53.56154541 48.72074707 52.94287109 49.45605469 C50.08527107 52.927225 47.36271181 56.50443911 44.625 60.0703125 C44.04524414 60.81643799 43.46548828 61.56256348 42.86816406 62.33129883 C42.32514648 63.03794678 41.78212891 63.74459473 41.22265625 64.47265625 C40.73418213 65.10550537 40.24570801 65.73835449 39.74243164 66.39038086 C38.37788929 68.2364858 38.37788929 68.2364858 37.5625 71.1328125 C38.28014151 72.9719207 38.28014151 72.9719207 39.51953125 74.8359375 C39.96772217 75.56143799 40.41591309 76.28693848 40.87768555 77.03442383 C41.6188562 78.19687622 41.6188562 78.19687622 42.375 79.3828125 C42.87620361 80.18549561 43.37740723 80.98817871 43.89379883 81.81518555 C47.48709467 87.53562206 51.2072688 93.16782901 54.97924805 98.77148438 C57.77945274 102.93597812 60.52342784 107.1297709 63.1875 111.3828125 C64.16589844 112.93742188 64.16589844 112.93742188 65.1640625 114.5234375 C66.5625 117.1328125 66.5625 117.1328125 66.5625 120.1328125 C58.3125 120.1328125 50.0625 120.1328125 41.5625 120.1328125 C40.5725 118.40675781 39.5825 116.68070313 38.5625 114.90234375 C37.57751569 113.18865554 36.5925094 111.47497989 35.60699463 109.76159668 C34.91238642 108.55373418 34.21817052 107.34564598 33.52435303 106.1373291 C29.15079535 98.5243566 24.72135093 90.97955634 19.8828125 83.6484375 C18.38695799 80.79834784 17.92535367 78.31476005 17.5625 75.1328125 C16.9025 75.1328125 16.2425 75.1328125 15.5625 75.1328125 C16.0575 76.1228125 16.0575 76.1228125 16.5625 77.1328125 C16.65647224 78.48578911 16.69043378 79.84322753 16.69189453 81.19946289 C16.69504669 82.03695572 16.69819885 82.87444855 16.70144653 83.73731995 C16.6994223 84.64255905 16.69739807 85.54779816 16.6953125 86.48046875 C16.69674759 87.87101723 16.69674759 87.87101723 16.69821167 89.28965759 C16.69889276 91.25080432 16.6970434 93.2119533 16.69287109 95.1730957 C16.68751582 98.18641177 16.69282158 101.19957918 16.69921875 104.21289062 C16.69855807 106.11458366 16.69727713 108.01627661 16.6953125 109.91796875 C16.69733673 110.82523209 16.69936096 111.73249542 16.70144653 112.66725159 C16.67745378 119.01785872 16.67745378 119.01785872 15.5625 120.1328125 C14.08597336 120.23162047 12.60482764 120.26360495 11.125 120.265625 C9.78308594 120.26755859 9.78308594 120.26755859 8.4140625 120.26953125 C7.00253906 120.26373047 7.00253906 120.26373047 5.5625 120.2578125 C4.15097656 120.26361328 4.15097656 120.26361328 2.7109375 120.26953125 C1.81632812 120.26824219 0.92171875 120.26695312 0 120.265625 C-0.82628906 120.26449707 -1.65257812 120.26336914 -2.50390625 120.26220703 C-4.4375 120.1328125 -4.4375 120.1328125 -5.4375 119.1328125 C-5.53548388 117.6042776 -5.56381831 116.07122286 -5.56448364 114.53955078 C-5.56730347 113.5467511 -5.57012329 112.55395142 -5.57302856 111.53106689 C-5.57100433 110.43284607 -5.5689801 109.33462524 -5.56689453 108.203125 C-5.56864685 107.05366394 -5.57039917 105.90420288 -5.57220459 104.71990967 C-5.5766259 100.8991955 -5.57368413 97.07852718 -5.5703125 93.2578125 C-5.57098546 90.61604809 -5.57195542 87.97428373 -5.57321167 85.33251953 C-5.57503321 79.78742979 -5.57262747 74.24235335 -5.56787109 68.69726562 C-5.5624285 62.27786506 -5.56419117 55.85849625 -5.5696975 49.43909645 C-5.57477426 43.27480267 -5.57424711 37.11052302 -5.57131577 30.94622803 C-5.57064622 28.3178507 -5.57147588 25.68947258 -5.57379532 23.06109619 C-5.57632019 19.39487527 -5.57248357 15.72871628 -5.56689453 12.0625 C-5.56891876 10.96427917 -5.57094299 9.86605835 -5.57302856 8.73455811 C-5.57020874 7.74175842 -5.56738892 6.74895874 -5.56448364 5.72607422 C-5.56410662 4.85812225 -5.56372959 3.99017029 -5.56334114 3.09591675 C-5.32265873 -0.65869528 -3.25966253 0.00444962 0 0 Z " fill="#1C232B" transform="translate(1126.4375,453.8671875)"/>
<path d="M0 0 C7.05687618 5.67768214 9.83785035 12.54809959 11.3359375 21.3046875 C11.42029865 23.29780943 11.45373463 25.29342818 11.44946289 27.28833008 C11.44934959 29.05960014 11.44934959 29.05960014 11.44923401 30.86665344 C11.44407272 32.13139999 11.43891144 33.39614655 11.43359375 34.69921875 C11.4321788 36.00171066 11.43076385 37.30420258 11.42930603 38.64616394 C11.42550105 42.09685204 11.41568814 45.54749758 11.40460205 48.99816895 C11.39434439 52.52416407 11.3897991 56.05016611 11.38476562 59.57617188 C11.37406394 66.48569626 11.35648362 73.39518545 11.3359375 80.3046875 C5.7259375 80.3046875 0.1159375 80.3046875 -5.6640625 80.3046875 C-7.6640625 75.3046875 -7.6640625 75.3046875 -7.6640625 72.3046875 C-8.33888672 72.88476562 -8.33888672 72.88476562 -9.02734375 73.4765625 C-17.62137242 80.43445345 -26.22159517 83.10583229 -37.2890625 82.75390625 C-43.72927284 81.89670233 -49.16369577 79.28455838 -53.6015625 74.4921875 C-58.66839936 66.66162144 -59.80863062 59.55013099 -58.6640625 50.3046875 C-56.39018377 42.39554408 -51.67681774 37.40731342 -44.6640625 33.3046875 C-34.15719766 28.14029631 -22.24527281 26.90533542 -10.6640625 27.3046875 C-10.89364027 25.8637849 -11.14862604 24.42691735 -11.4140625 22.9921875 C-11.55328125 22.19167969 -11.6925 21.39117188 -11.8359375 20.56640625 C-12.92462394 17.59305979 -13.85277562 16.76341764 -16.6640625 15.3046875 C-26.55054174 14.03012397 -35.4384943 15.61334886 -44.84765625 18.52734375 C-45.77707031 18.78386719 -46.70648437 19.04039062 -47.6640625 19.3046875 C-50.2182807 16.7504693 -49.64798711 10.03008925 -49.7265625 6.484375 C-49.7265625 4.09026874 -49.70903718 1.69833971 -49.6640625 -0.6953125 C-47.60253861 -1.34425487 -45.53979992 -1.9893389 -43.4765625 -2.6328125 C-42.32800781 -2.99246094 -41.17945313 -3.35210937 -39.99609375 -3.72265625 C-27.0130582 -7.51254588 -11.68997211 -7.43907316 0 0 Z " fill="#1C232B" transform="translate(1027.6640625,493.6953125)"/>
<path d="M0 0 C8.55567712 7.78124083 11.95806171 19.23055723 12.625 30.4609375 C12.68042969 31.13382813 12.73585938 31.80671875 12.79296875 32.5 C13.11666139 37.58099349 12.36119614 40.25925101 10.875 45.4609375 C-5.295 45.4609375 -21.465 45.4609375 -38.125 45.4609375 C-34.41818983 55.25697882 -34.41818983 55.25697882 -27.125 61.4609375 C-18.9326789 64.1917112 -9.59394876 62.78770544 -1.52734375 60.21484375 C0.92302805 59.44586528 3.35078705 58.9243848 5.875 58.4609375 C6.55110423 60.35342569 7.21550439 62.2500977 7.875 64.1484375 C8.24625 65.20417969 8.6175 66.25992188 9 67.34765625 C9.8141857 70.24455806 10.05209796 72.47794373 9.875 75.4609375 C-4.89745641 82.33029646 -22.66084484 84.21335679 -38.18359375 78.78515625 C-47.75646593 74.47545682 -55.35298772 66.26816942 -59.125 56.4609375 C-62.62476698 42.10969178 -62.81154013 26.01787458 -55.875 12.6484375 C-50.97955539 4.68420672 -44.96469584 -2.25916389 -35.88671875 -5.28515625 C-23.32397977 -8.26649365 -10.69979142 -7.74948129 0 0 Z " fill="#1D242C" transform="translate(707.125,494.5390625)"/>
<path d="M0 0 C8.13508529 7.61481821 12.3036448 18.1061892 12.85693359 29.05322266 C12.91843772 31.28656065 12.93556232 33.51585951 12.9375 35.75 C12.94974609 36.51248047 12.96199219 37.27496094 12.97460938 38.06054688 C12.9798094 40.02095454 12.8729359 41.98094383 12.75 43.9375 C10.75 45.9375 10.75 45.9375 8.68722534 46.17800903 C7.83895172 46.17356781 6.9906781 46.16912659 6.11669922 46.16455078 C5.15585419 46.16439972 4.19500916 46.16424866 3.20504761 46.16409302 C2.16542877 46.15377045 1.12580994 46.14344788 0.0546875 46.1328125 C-1.00789276 46.1299826 -2.07047302 46.12715271 -3.16525269 46.12423706 C-6.56861499 46.11301639 -9.97171686 46.08790837 -13.375 46.0625 C-15.67838162 46.05247264 -17.98176736 46.04334637 -20.28515625 46.03515625 C-25.94019345 46.01307093 -31.59507813 45.97957489 -37.25 45.9375 C-36.66945623 47.53432618 -36.07408024 49.12576411 -35.47265625 50.71484375 C-35.14273682 51.60163818 -34.81281738 52.48843262 -34.47290039 53.40209961 C-32.61799182 57.24782242 -29.83103758 59.68584992 -26.25 61.9375 C-17.15826721 64.9680776 -7.57209647 62.894529 1.203125 59.8125 C3.75 58.9375 3.75 58.9375 5.75 58.9375 C8.78910346 64.883572 9.40226572 70.30656706 9.75 76.9375 C7.54290017 77.58753625 5.33426108 78.23234745 3.125 78.875 C1.28035156 79.41447266 1.28035156 79.41447266 -0.6015625 79.96484375 C-13.38715767 83.37342319 -28.75324164 84.06668209 -40.63671875 77.6484375 C-49.91021195 71.91573261 -55.70035595 63.95632871 -59.00390625 53.56640625 C-62.67616344 37.92721302 -60.30649467 22.65368217 -52.25 8.9375 C-47.76147254 1.83558649 -39.89585038 -3.25265382 -31.890625 -5.58984375 C-20.33200274 -7.65876874 -9.91451568 -6.29190418 0 0 Z " fill="#1D242C" transform="translate(1250.25,494.0625)"/>
<path d="M0 0 C1.21796265 -0.00315216 2.43592529 -0.00630432 3.6907959 -0.009552 C5.03019242 -0.00776222 6.36958862 -0.00571127 7.70898438 -0.00341797 C9.07279477 -0.00409106 10.43660505 -0.00506114 11.80041504 -0.00631714 C14.66203959 -0.00779385 17.52363297 -0.00564044 20.38525391 -0.00097656 C24.06092051 0.00472073 27.73651411 0.00144157 31.41217804 -0.00454903 C34.22935541 -0.00815538 37.04651535 -0.00701571 39.86369324 -0.00442123 C41.21933501 -0.00375217 42.57497834 -0.00457968 43.93061829 -0.00690079 C45.82223482 -0.00942848 47.71385687 -0.00489561 49.60546875 0 C51.2231012 0.00119339 51.2231012 0.00119339 52.87341309 0.00241089 C55.30273438 0.12939453 55.30273438 0.12939453 56.30273438 1.12939453 C56.40379716 2.96041434 56.43236519 4.79559362 56.42773438 6.62939453 C56.43160156 8.12986328 56.43160156 8.12986328 56.43554688 9.66064453 C56.27587276 13.83095665 55.76360575 17.98155214 55.30273438 22.12939453 C42.76273438 22.12939453 30.22273437 22.12939453 17.30273438 22.12939453 C17.30273438 32.68939453 17.30273438 43.24939453 17.30273438 54.12939453 C28.85273437 54.12939453 40.40273438 54.12939453 52.30273438 54.12939453 C52.30273438 60.72939453 52.30273438 67.32939453 52.30273438 74.12939453 C40.75273438 74.12939453 29.20273437 74.12939453 17.30273438 74.12939453 C17.31433594 77.29404297 17.3259375 80.45869141 17.33789062 83.71923828 C17.34568032 86.77058817 17.35175758 89.82193697 17.35766602 92.87329102 C17.36270736 95.00057467 17.36954029 97.12785484 17.37817383 99.25512695 C17.39024817 102.30567279 17.39596452 105.35617298 17.40039062 108.40673828 C17.40555191 109.36402328 17.4107132 110.32130829 17.41603088 111.30760193 C17.41614418 112.62885826 17.41614418 112.62885826 17.41625977 113.97680664 C17.41848038 114.7562413 17.42070099 115.53567596 17.42298889 116.33872986 C17.30273438 118.12939453 17.30273438 118.12939453 16.30273438 119.12939453 C14.68015893 119.22856024 13.05333606 119.2601923 11.42773438 119.26220703 C10.44289063 119.26349609 9.45804688 119.26478516 8.44335938 119.26611328 C7.40695312 119.26224609 6.37054687 119.25837891 5.30273438 119.25439453 C3.748125 119.26019531 3.748125 119.26019531 2.16210938 119.26611328 C1.17726563 119.26482422 0.19242188 119.26353516 -0.82226562 119.26220703 C-1.73234375 119.2610791 -2.64242187 119.25995117 -3.58007812 119.25878906 C-5.69726562 119.12939453 -5.69726562 119.12939453 -6.69726562 118.12939453 C-6.79521632 116.61353341 -6.82358377 115.093119 -6.82424927 113.57409668 C-6.82706909 112.58971115 -6.82988892 111.60532562 -6.83279419 110.59111023 C-6.83076996 109.50224014 -6.82874573 108.41337006 -6.82666016 107.29150391 C-6.82841248 106.15179642 -6.83016479 105.01208893 -6.83197021 103.83784485 C-6.83639148 100.04959617 -6.83344977 96.26139373 -6.83007812 92.47314453 C-6.83075108 89.85380036 -6.83172104 87.23445626 -6.83297729 84.6151123 C-6.83479882 79.11710097 -6.83239312 73.61910305 -6.82763672 68.12109375 C-6.82219413 61.75622466 -6.82395679 55.39138761 -6.82946312 49.0265193 C-6.83453991 42.91455121 -6.83401273 36.80259737 -6.83108139 30.69062805 C-6.83041185 28.08457942 -6.83124149 25.47852998 -6.83356094 22.8724823 C-6.83608585 19.2373942 -6.83224916 15.60236857 -6.82666016 11.96728516 C-6.82868439 10.87841507 -6.83070862 9.78954498 -6.83279419 8.66767883 C-6.82997437 7.6832933 -6.82715454 6.69890778 -6.82424927 5.68469238 C-6.82387224 4.82411476 -6.82349522 3.96353714 -6.82310677 3.07688141 C-6.55485265 -1.07455409 -3.4815353 0.00256846 0 0 Z " fill="#1D242C" transform="translate(529.697265625,454.87060546875)"/>
<path d="M0 0 C0.42765417 6.41481258 -1.14256832 11.88595404 -3 18 C-6.16013968 17.30666681 -8.95883943 16.18719368 -11.9375 14.9375 C-18.14271108 12.64608782 -24.43962562 11.92753821 -31 13 C-33.29013653 16.4352048 -33.17842973 17.985331 -33 22 C-30.65587 22.94336939 -28.31033556 23.88092463 -25.95117188 24.78613281 C-2.98910824 33.63056092 -2.98910824 33.63056092 2.5625 44.375 C5.22772913 51.49042823 4.78416264 58.78605994 2.09375 65.8359375 C-2.15250383 74.237454 -9.07945726 78.69803981 -17.84375 81.61328125 C-30.45677203 83.87539933 -45.75659024 82.10014785 -57 76 C-56.61020794 69.44074057 -55.57886807 64.05473373 -53 58 C-47 60 -47 60 -45.01953125 60.80078125 C-38.06532681 63.47352649 -30.41824948 64.44370969 -23.2265625 62.09375 C-20.90955571 61.16221335 -20.90955571 61.16221335 -19.625 59.1875 C-18.75910889 56.15688112 -18.7147136 54.92759681 -20 52 C-24.15167354 48.27741004 -29.27500741 46.45682612 -34.4375 44.5625 C-42.58529102 41.537798 -49.95894235 38.0821153 -54 30 C-56.6930147 22.52805171 -57.09597726 15.25222065 -53.96484375 7.87890625 C-50.58948541 1.30584001 -45.68207005 -2.12808291 -39 -5 C-26.23027528 -8.46885561 -11.38490123 -6.32494513 0 0 Z " fill="#1D242C" transform="translate(782,494)"/>
<path d="M0 0 C1 1 1 1 1.25 4.375 C1.21041689 9.81767812 -0.40549964 14.83685596 -2 20 C-4.46218986 19.03426476 -6.8927225 18.05016047 -9.2890625 16.9296875 C-15.51243337 14.11980433 -21.18006826 12.88585274 -28 14 C-30.8677118 15.4435848 -30.8677118 15.4435848 -32 18 C-32.19969826 20.49163455 -32.19969826 20.49163455 -31 23 C-28.4974841 24.5900462 -26.24241199 25.8008775 -23.5625 27 C-22.83764404 27.34321289 -22.11278809 27.68642578 -21.3659668 28.04003906 C-19.25033175 29.04100492 -17.12582608 30.02091944 -15 31 C-6.03817775 35.27825685 0.18793812 38.43247213 4 48 C6.20444738 54.5994777 5.17846306 63.24264732 2.3125 69.5 C-1.96121229 76.76531089 -9.27075919 80.47422335 -17.21484375 82.58984375 C-29.22410749 84.3583889 -44.02168382 84.56225371 -54.34765625 77.36328125 C-54.89292969 76.91339844 -55.43820312 76.46351563 -56 76 C-55.53444296 69.59859065 -53.85288164 64.73230171 -51 59 C-49.845 59.61875 -48.69 60.2375 -47.5 60.875 C-40.41171966 64.39418144 -32.90802949 66.38124855 -25.01171875 64.53515625 C-21.56010099 63.32744734 -20.16100401 62.30268753 -18.4375 59.0625 C-17.95183722 55.66286054 -18.20118601 54.81206997 -20 52 C-24.69268981 49.25521917 -29.53830579 47.40097029 -34.625 45.5 C-39.2772371 43.73795177 -43.12004224 42.10396621 -47 39 C-48.3303125 37.948125 -48.3303125 37.948125 -49.6875 36.875 C-54.22416329 31.23482402 -55.30849772 25.08054484 -55.0625 17.9375 C-54.15941133 10.38262916 -50.66752116 4.85060339 -44.75 0.125 C-30.80457595 -8.61735911 -14.34930436 -6.07009408 0 0 Z " fill="#1C232B" transform="translate(1106,493)"/>
<path d="M0 0 C1.10589478 0.00616333 1.10589478 0.00616333 2.23413086 0.01245117 C3.0352832 0.01438477 3.83643555 0.01631836 4.66186523 0.01831055 C5.49911133 0.03055664 6.33635742 0.04280273 7.19897461 0.05541992 C8.46064453 0.05638672 8.46064453 0.05638672 9.74780273 0.05737305 C15.99624277 0.10268808 15.99624277 0.10268808 17.13647461 1.24291992 C17.22373684 3.02363238 17.24346502 4.80775132 17.23413086 6.59057617 C17.2309082 7.67016602 17.22768555 8.74975586 17.22436523 9.86206055 C17.21179687 11.56652344 17.21179687 11.56652344 17.19897461 13.30541992 C17.19446289 14.4455957 17.18995117 15.58577148 17.18530273 16.76049805 C17.17347208 19.58802344 17.15698871 22.41544632 17.13647461 25.24291992 C18.27987305 25.23131836 19.42327148 25.2197168 20.60131836 25.20776367 C22.09220215 25.19838704 23.5830877 25.18928671 25.07397461 25.18041992 C25.8287207 25.17204102 26.5834668 25.16366211 27.36108398 25.1550293 C29.28641774 25.14639551 31.21183042 25.19067659 33.13647461 25.24291992 C34.13647461 26.24291992 34.13647461 26.24291992 34.23413086 30.05932617 C34.22838599 31.64139039 34.21537054 33.22343023 34.19897461 34.80541992 C34.17834961 37.58979492 34.15772461 40.37416992 34.13647461 43.24291992 C28.52647461 43.24291992 22.91647461 43.24291992 17.13647461 43.24291992 C17.23402481 48.18717472 17.33712854 53.13070761 17.45385742 58.07446289 C17.49186175 59.75212838 17.52676133 61.42986746 17.55834961 63.10766602 C17.45505114 76.37503948 17.45505114 76.37503948 20.13647461 89.24291992 C23.722952 92.1569328 28.58047643 91.36686661 33.02709961 91.21557617 C35.13647461 91.24291992 35.13647461 91.24291992 36.13647461 92.24291992 C36.20972629 95.10559559 36.22885666 97.94363892 36.19897461 100.80541992 C36.19446289 101.61172852 36.18995117 102.41803711 36.18530273 103.2487793 C36.17347979 105.24685748 36.15554375 107.24489775 36.13647461 109.24291992 C28.34764176 112.2544407 19.05818809 112.73173825 11.01147461 110.29760742 C4.83674321 107.37563631 1.59699196 104.05576815 -1.55102539 97.99291992 C-4.13495278 90.61027025 -4.00705387 82.92883113 -3.96118164 75.17651367 C-3.95976669 74.25701431 -3.95835175 73.33751495 -3.95689392 72.39015198 C-3.95134851 69.48687321 -3.93880656 66.58367492 -3.92602539 63.68041992 C-3.92100332 61.69799917 -3.91644166 59.71557719 -3.91235352 57.7331543 C-3.90139703 52.90304572 -3.88417082 48.07299641 -3.86352539 43.24291992 C-4.64598633 43.25452148 -5.42844727 43.26612305 -6.23461914 43.27807617 C-7.2465332 43.28709961 -8.25844727 43.29612305 -9.30102539 43.30541992 C-10.31036133 43.31702148 -11.31969727 43.32862305 -12.35961914 43.34057617 C-14.86352539 43.24291992 -14.86352539 43.24291992 -15.86352539 42.24291992 C-15.96333753 39.56560612 -16.00232414 36.91987818 -15.98852539 34.24291992 C-15.99239258 33.49268555 -15.99625977 32.74245117 -16.00024414 31.96948242 C-15.99013592 26.36953046 -15.99013592 26.36953046 -14.86352539 25.24291992 C-13.01065038 25.17065491 -11.15518661 25.15910772 -9.30102539 25.18041992 C-8.28911133 25.18944336 -7.27719727 25.1984668 -6.23461914 25.20776367 C-5.06092773 25.22516602 -5.06092773 25.22516602 -3.86352539 25.24291992 C-3.87399902 24.55665527 -3.88447266 23.87039063 -3.89526367 23.16333008 C-3.93674413 20.06489703 -3.96282608 16.96652231 -3.98852539 13.86791992 C-4.0052832 12.78768555 -4.02204102 11.70745117 -4.03930664 10.59448242 C-4.04575195 9.56323242 -4.05219727 8.53198242 -4.05883789 7.46948242 C-4.06931152 6.51638184 -4.07978516 5.56328125 -4.09057617 4.58129883 C-3.8039626 1.6294872 -3.04274717 0.39663742 0 0 Z " fill="#1C232B" transform="translate(1283.863525390625,463.757080078125)"/>
<path d="M0 0 C1.33417969 -0.00386719 1.33417969 -0.00386719 2.6953125 -0.0078125 C4.875 0.125 4.875 0.125 5.875 1.125 C6.00215522 3.90762943 6.06021315 6.6544073 6.0625 9.4375 C6.07474609 10.21029297 6.08699219 10.98308594 6.09960938 11.77929688 C6.11992972 19.6568176 6.11992972 19.6568176 3.875 22.125 C0.79296875 23.06640625 0.79296875 23.06640625 -2.9375 23.6875 C-9.32247001 24.77072463 -13.31454646 25.64165494 -17.23291016 31.01635742 C-19.98356235 36.01781717 -19.70932391 41.12771591 -19.69921875 46.7109375 C-19.72046562 48.35722641 -19.72046562 48.35722641 -19.74214172 50.03677368 C-19.78391909 53.52461694 -19.79926761 57.01194207 -19.8125 60.5 C-19.8415238 64.00924178 -19.87598471 67.51835179 -19.91499329 71.02749634 C-19.93754613 73.20759104 -19.95332548 75.38776791 -19.96183777 77.56796265 C-19.96887222 78.54633087 -19.97590668 79.5246991 -19.9831543 80.53271484 C-19.98837349 81.83008072 -19.98837349 81.83008072 -19.99369812 83.15365601 C-20.125 85.125 -20.125 85.125 -21.125 86.125 C-22.68672745 86.21185603 -24.25229344 86.23202219 -25.81640625 86.22265625 C-26.76064453 86.21943359 -27.70488281 86.21621094 -28.67773438 86.21289062 C-29.67095703 86.20451172 -30.66417969 86.19613281 -31.6875 86.1875 C-32.68458984 86.18298828 -33.68167969 86.17847656 -34.70898438 86.17382812 C-37.18104849 86.16200007 -39.65299518 86.14551849 -42.125 86.125 C-42.14812297 75.19003529 -42.16591485 64.25507634 -42.17681217 53.3200922 C-42.1820411 48.24308982 -42.18913892 43.16610411 -42.20043945 38.08911133 C-42.21126799 33.19379448 -42.21727676 28.29849371 -42.21987724 23.40316582 C-42.22173155 21.53117049 -42.22535228 19.65917609 -42.23073006 17.78718758 C-42.23794004 15.17459301 -42.23899096 12.56206573 -42.23852539 9.94946289 C-42.24212067 9.16759613 -42.24571594 8.38572937 -42.24942017 7.58016968 C-42.23905216 2.23905216 -42.23905216 2.23905216 -41.125 1.125 C-39.70929877 1.03848389 -38.289405 1.01795096 -36.87109375 1.02734375 C-35.59008789 1.03217773 -35.59008789 1.03217773 -34.28320312 1.03710938 C-33.38537109 1.04548828 -32.48753906 1.05386719 -31.5625 1.0625 C-30.66080078 1.06701172 -29.75910156 1.07152344 -28.83007812 1.07617188 C-26.59502411 1.08799756 -24.36000398 1.10593362 -22.125 1.125 C-21.795 5.085 -21.465 9.045 -21.125 13.125 C-20.09375 11.8875 -19.0625 10.65 -18 9.375 C-12.84123454 3.47479254 -8.0906814 -0.02358799 0 0 Z " fill="#1B222A" transform="translate(638.125,487.875)"/>
<path d="M0 0 C3.70390021 2.02666238 5.65363011 3.48044516 8 7 C8.75415299 13.11841158 7.69345936 19.41590481 6.79296875 25.46875 C6.60387688 26.78752136 6.60387688 26.78752136 6.41096497 28.13293457 C6.14406512 29.98553953 5.87413703 31.83771053 5.60131836 33.68945312 C5.19281626 36.46389334 4.79380444 39.2395638 4.39648438 42.015625 C3.75115773 46.49449865 3.08070995 50.96900037 2.39202881 55.44140625 C2.13377841 57.12688918 1.88012182 58.81308336 1.63140869 60.5 C1.28626849 62.82554988 0.92143711 65.14714842 0.55078125 67.46875 C0.40493843 68.48527649 0.40493843 68.48527649 0.25614929 69.52233887 C-0.51776416 74.16780409 -2.12583667 77.29346845 -5 81 C-8.97520689 83.71036834 -13.35185371 83.81221933 -18 83 C-21.07061968 81.28631391 -23.40450726 79.19098548 -25 76 C-25.49476279 68.58116344 -24.69726844 61.35218498 -23.57421875 54.03125 C-23.35183281 52.52890808 -23.35183281 52.52890808 -23.12495422 50.99621582 C-22.81188728 48.89484265 -22.49487858 46.79405322 -22.17407227 44.69384766 C-21.68897554 41.50968538 -21.2195848 38.32348749 -20.75195312 35.13671875 C-20.44364377 33.08058868 -20.13442895 31.02459414 -19.82421875 28.96875 C-19.61776985 27.56357117 -19.61776985 27.56357117 -19.40715027 26.13000488 C-16.46973495 7.13823587 -16.46973495 7.13823587 -11 2 C-7.51335549 -0.52481154 -4.20248882 -0.43474022 0 0 Z " fill="#FCFEFD" transform="translate(416,511)"/>
<path d="M0 0 C3.5967563 2.21927516 5.41726596 4.1368369 7 8 C7.54224448 10.52948111 7.9914799 13.00830638 8.375 15.5625 C8.49657471 16.35462891 8.61814941 17.14675781 8.7434082 17.96289062 C10.0695565 26.9520523 11.1291183 35.97620703 12.1875 45 C12.2780365 45.75685089 12.368573 46.51370178 12.46185303 47.29348755 C15.21319902 70.43880208 15.21319902 70.43880208 12.3125 76.5625 C9.2416495 79.79934242 7.32842988 80.8939695 2.85546875 81.09765625 C-1.4846642 80.91771707 -3.27292303 80.64248333 -6.65234375 77.65625 C-10.0853418 73.17623399 -10.38557171 67.95558312 -11.0625 62.5 C-11.21750977 61.3744873 -11.37251953 60.24897461 -11.53222656 59.08935547 C-11.86305225 56.66849374 -12.18485045 54.24638458 -12.49853516 51.82324219 C-12.92654354 48.56004292 -13.37889192 45.30162342 -13.84812927 42.04412842 C-14.32384733 38.73892799 -14.78633129 35.43191244 -15.25 32.125 C-15.42539307 30.89716797 -15.60078613 29.66933594 -15.78149414 28.40429688 C-18.4565584 8.60099715 -18.4565584 8.60099715 -15.25 2.875 C-10.19051318 -1.34123902 -6.28711731 -1.56055233 0 0 Z " fill="#FDFEFD" transform="translate(300,513)"/>
<path d="M0 0 C3.83011087 2.07803887 6.42957755 4.93611074 8 9 C8.26069641 11.87033081 8.26069641 11.87033081 8.2746582 15.23388672 C8.28895622 17.1263765 8.28895622 17.1263765 8.30354309 19.05709839 C8.30328162 20.43129504 8.30234439 21.80549171 8.30078125 23.1796875 C8.30467045 24.59449387 8.30900559 26.00929908 8.31376648 27.42410278 C8.3212222 30.38807969 8.32094254 33.35193747 8.31567383 36.31591797 C8.3098854 40.10439191 8.32679763 43.89237597 8.3500185 47.68076897 C8.36479024 50.60282213 8.3656228 53.52475831 8.36250877 56.44684219 C8.36302044 57.84301853 8.36822908 59.23920168 8.37832069 60.63534164 C8.39073067 62.59263085 8.38192958 64.55001929 8.37231445 66.50732422 C8.37294388 67.61888885 8.3735733 68.73045349 8.3742218 69.8757019 C7.94033541 73.49812693 6.88036803 75.88823231 5 79 C1.47275047 81.60344608 -1.27695969 82.23531253 -5.5625 82 C-10.04225917 81.320104 -12.22193006 79.6462168 -15 76 C-16.10838138 72.67485585 -16.16780792 70.10830142 -16.22460938 66.60424805 C-16.23599945 65.9599585 -16.24738953 65.31566895 -16.25912476 64.65185547 C-16.36956963 57.92776134 -16.41716173 51.20259266 -16.45996094 44.4777832 C-16.48224815 41.28908565 -16.52403616 38.10155639 -16.58300781 34.91333008 C-16.65416466 31.05827505 -16.69080086 27.20432032 -16.70307922 23.34864235 C-16.71346594 21.88256233 -16.73585826 20.41651471 -16.77067566 18.95081139 C-17.0283095 7.51532367 -17.0283095 7.51532367 -14.47865295 3.75813293 C-9.95986669 -0.24279704 -5.91558192 -1.45200647 0 0 Z " fill="#FCFEFC" transform="translate(357,512)"/>
<path d="M0 0 C4.455 -0.0928125 4.455 -0.0928125 9 -0.1875 C9.91910156 -0.21481201 10.83820312 -0.24212402 11.78515625 -0.27026367 C18.25734942 -0.33479133 23.90654703 0.41723091 29.05859375 4.71875 C29.74115234 5.60046875 29.74115234 5.60046875 30.4375 6.5 C30.91058594 7.0878125 31.38367188 7.675625 31.87109375 8.28125 C34.36761481 12.08218171 34.29455095 15.58173581 34 20 C32.33236419 25.17844803 30.59004726 28.04925533 26 31 C22.48978126 32.63549678 19.78154755 33.24271837 15.91796875 33.1953125 C14.65762817 33.18781982 14.65762817 33.18781982 13.37182617 33.18017578 C12.32099854 33.16196777 11.2701709 33.14375977 10.1875 33.125 C6.825625 33.08375 3.46375 33.0425 0 33 C0 22.11 0 11.22 0 0 Z " fill="#FDFDFD" transform="translate(905,523)"/>
<path d="M0 0 C19.18929484 -0.48376374 19.18929484 -0.48376374 25 3 C28.68306035 6.59322961 29.26350842 9.59035597 29.4375 14.5625 C29.24634148 18.83749968 29.08437658 21.81923665 26 25 C20.23935007 28.81686699 15.28675469 29.53509416 8.5 29.25 C5.695 29.1675 2.89 29.085 0 29 C0 19.43 0 9.86 0 0 Z " fill="#FCFCFC" transform="translate(905,474)"/>
<path d="M0 0 C1.06367294 0.0199855 2.12734589 0.03997101 3.22325134 0.06056213 C4.42442093 0.08065842 5.62559052 0.1007547 6.86315918 0.12145996 C8.17042465 0.14849503 9.47769012 0.17553009 10.8245697 0.2033844 C12.16834739 0.22767602 13.51213323 0.25152005 14.85592651 0.27493286 C18.39881155 0.33786928 21.94155274 0.40690857 25.48429871 0.47718811 C29.0970045 0.54778551 32.70981255 0.61265382 36.32261658 0.67799377 C43.41582829 0.8071292 50.50888825 0.94323645 57.60191345 1.08229065 C57.60191345 7.35229065 57.60191345 13.62229065 57.60191345 20.08229065 C45.39191345 20.08229065 33.18191345 20.08229065 20.60191345 20.08229065 C20.60191345 19.75229065 20.60191345 19.42229065 20.60191345 19.08229065 C32.48191345 19.08229065 44.36191345 19.08229065 56.60191345 19.08229065 C56.60191345 13.47229065 56.60191345 7.86229065 56.60191345 2.08229065 C37.79191345 2.08229065 18.98191345 2.08229065 -0.39808655 2.08229065 C-0.39808655 40.03229065 -0.39808655 77.98229065 -0.39808655 117.08229065 C-1.88308655 117.57729065 -1.88308655 117.57729065 -3.39808655 118.08229065 C-3.42141616 102.84466001 -3.43906603 87.60703019 -3.44989872 72.36938572 C-3.45506154 65.29475877 -3.46210398 58.22014291 -3.473526 51.14552307 C-3.48453336 44.32450187 -3.49036273 37.50349221 -3.49296379 30.68246269 C-3.49481859 28.07362117 -3.49844025 25.46478032 -3.5038166 22.85594368 C-3.51102298 19.21596513 -3.51207766 15.5760349 -3.51161194 11.93605042 C-3.51520721 10.84560928 -3.51880249 9.75516815 -3.52250671 8.63168335 C-3.52113205 7.64585266 -3.51975739 6.66002197 -3.51834106 5.64431763 C-3.51926286 4.78244119 -3.52018465 3.92056475 -3.52113438 3.03257084 C-3.33658196 0.10745693 -2.9378923 0.10081415 0 0 Z " fill="#30363C" transform="translate(526.3980865478516,454.91770935058594)"/>
<path d="M0 0 C0.78085741 11.85168028 0.78085741 11.85168028 -2.125 16.125 C-3.07375 16.74375 -4.0225 17.3625 -5 18 C-5.9075 18.598125 -6.815 19.19625 -7.75 19.8125 C-13.05033026 21.74915913 -17.82599502 21.99641895 -23 19.625 C-26.00124044 17.18649214 -25.98302333 16.14793955 -26.4375 12.1875 C-26.37216229 8.58085851 -26.09034958 8.10424952 -23.5625 5.1875 C-16.22748365 0.11468496 -8.69962738 -0.43904662 0 0 Z " fill="#FBFBFB" transform="translate(1017,537)"/>
<path d="M0 0 C4.91624028 2.36707866 7.18602527 4.86040493 9 10 C9 12.31 9 14.62 9 17 C-0.24 17 -9.48 17 -19 17 C-17.91044951 10.46269705 -16.81266825 6.98530332 -12.375 2.125 C-8.05270662 -0.59644398 -4.97777309 -0.95451921 0 0 Z " fill="#FAFAFB" transform="translate(688,506)"/>
<path d="M0 0 C4.0189029 2.28418114 6.47727102 4.88636 8.4375 9.0625 C9 12 9 12 9 17 C-0.24 17 -9.48 17 -19 17 C-16.15789474 5.63157895 -16.15789474 5.63157895 -10.75 1.125 C-7.06230564 -0.38360224 -3.86834346 -0.90114819 0 0 Z " fill="#FBFBFC" transform="translate(1232,506)"/>
<path d="M0 0 C7.59 0 15.18 0 23 0 C22 6 22 6 19.9375 7.875 C19.298125 8.24625 18.65875 8.6175 18 9 C18.33 7.02 18.66 5.04 19 3 C12.73 2.67 6.46 2.34 0 2 C0 1.34 0 0.68 0 0 Z " fill="#0C1117" transform="translate(1164,489)"/>
<path d="M0 0 C-2.97 0.66 -5.94 1.32 -9 2 C-8.34 7.61 -7.68 13.22 -7 19 C-3.04 17.515 -3.04 17.515 1 16 C1.99 16.33 2.98 16.66 4 17 C0.04 18.32 -3.92 19.64 -8 21 C-10.5542182 18.4457818 -9.98392461 11.72540175 -10.0625 8.1796875 C-10.0625 5.78558124 -10.04497468 3.39365221 -10 1 C-5.8922935 -0.58706842 -4.40767604 -1.10191901 0 0 Z " fill="#0E1015" transform="translate(988,492)"/>
<path d="M0 0 C0.70703125 1.765625 0.70703125 1.765625 1 4 C-0.36328125 5.921875 -0.36328125 5.921875 -2.3125 7.75 C-3.26576172 8.67039062 -3.26576172 8.67039062 -4.23828125 9.609375 C-6 11 -6 11 -8 11 C-7.43040847 7.37386801 -6.07625466 5.74482259 -3.4375 3.25 C-2.79683594 2.63640625 -2.15617188 2.0228125 -1.49609375 1.390625 C-1.00238281 0.93171875 -0.50867188 0.4728125 0 0 Z " fill="#161B22" transform="translate(626,491)"/>
<path d="M0 0 C-0.99 0.495 -0.99 0.495 -2 1 C-2 1.66 -2 2.32 -2 3 C-7.94 3.495 -7.94 3.495 -14 4 C-14 3.34 -14 2.68 -14 2 C-9.15758367 0.66416101 -5.06562383 -0.25328119 0 0 Z " fill="#141920" transform="translate(842,488)"/>
<path d="M0 0 C2.4294516 3.6441774 2.16179575 5.71241272 2 10 C1.01 10 0.02 10 -1 10 C-1.02689216 8.52093108 -1.04634621 7.04172517 -1.0625 5.5625 C-1.07410156 4.73878906 -1.08570313 3.91507812 -1.09765625 3.06640625 C-1 1 -1 1 0 0 Z " fill="#292E33" transform="translate(956,479)"/>
<path d="M0 0 C0.66 0 1.32 0 2 0 C1.88570603 1.77155654 1.75816963 3.54226229 1.625 5.3125 C1.52058594 6.79169922 1.52058594 6.79169922 1.4140625 8.30078125 C1 11 1 11 -1 14 C-1.02705729 12.22925083 -1.04642195 10.45838289 -1.0625 8.6875 C-1.07410156 7.70136719 -1.08570313 6.71523438 -1.09765625 5.69921875 C-1 3 -1 3 0 0 Z " fill="#1EBB61" transform="translate(460,573)"/>
<path d="M0 0 C0.66 0.66 1.32 1.32 2 2 C1.9765625 4.8203125 1.9765625 4.8203125 1.625 8.125 C1.51414062 9.22070312 1.40328125 10.31640625 1.2890625 11.4453125 C1.19367187 12.28835938 1.09828125 13.13140625 1 14 C0.67 14 0.34 14 0 14 C0 10.04 0 6.08 0 2 C-0.66 1.67 -1.32 1.34 -2 1 C-1.34 0.67 -0.68 0.34 0 0 Z " fill="#2A313A" transform="translate(1017,535)"/>
</svg>
